<svg width="1000" height="1000" viewBox="0 0 1000 1000" fill="none" xmlns="http://www.w3.org/2000/svg">
<g clip-path="url(#clip0_1_14)">
<path d="M652.456 452.307C655.397 441.518 659.663 426.624 666.005 413.258C670.137 404.565 674.462 396.898 678.651 390.278C678.786 463.996 678.92 537.714 679.074 611.432C673.866 603.094 668.273 592.913 663.103 580.889C658.337 569.807 654.589 557.552 652.149 548.293C652.149 576.867 652.283 607.494 652.61 636.046C652.687 642.666 650.899 644.447 644.961 644.237C632.257 643.756 619.515 643.776 606.811 644.237C601.295 644.447 600.065 642.499 600.085 636.759C600.277 580.575 600.2 524.412 600.2 468.227C600.2 465.483 600.2 462.76 600.2 460.016C600.161 459.031 600.142 458.025 600.104 457.041C592.128 475.287 586.497 490.496 582.941 500.677C566.682 547.141 548.078 592.599 530.916 638.686C529.225 643.253 527.072 644.279 523.055 644.175C513.465 643.923 503.856 643.839 494.266 644.216C489.595 644.405 487.846 642.331 486.136 637.806C479.544 620.335 472.933 602.885 466.321 585.435C450.197 542.972 436.974 499.504 419.331 462.09C418.505 460.33 417.832 458.926 417.409 458.067C417.352 460.372 417.294 463.954 417.255 468.332C417.198 475.12 417.313 617.989 417.39 636.067C417.409 642.624 415.756 644.468 409.799 644.258C397.095 643.776 384.353 643.609 371.668 644.3C364.903 644.677 363.885 642.038 363.962 635.481C364.269 607.012 364.096 578.543 363.692 549.906C361.117 559.06 357.677 569.367 353.007 580.344C348.029 592.013 342.705 602.068 337.651 610.447C337.593 537.064 337.516 463.682 337.459 390.299C341.552 396.919 345.723 404.46 349.701 412.986C356.562 427.65 361.079 441.434 364.096 453.228C364.096 432.112 364.096 413.279 364.096 394.426C364.096 383.721 364.269 372.995 364.019 362.291C363.904 357.766 365.422 356.509 369.42 356.572C385.967 356.76 402.534 356.76 419.081 356.572C423.021 356.53 424.789 357.954 426.384 362.06C452.522 428.991 478.871 495.796 505.201 562.643C506.143 565.01 507.181 567.335 508.718 571.001C516.463 551.477 523.824 533.126 531.05 514.712C551.019 463.744 570.891 412.714 591.071 361.83C591.993 359.483 595.491 356.949 597.836 356.886C613.903 356.446 629.989 356.865 646.056 356.551C651.111 356.446 652.591 358.164 652.552 363.631C652.322 392.624 652.456 423.942 652.456 452.348V452.307Z" fill="#1754AC"/>
<path d="M191.706 568.487C179.271 536.75 167.125 505.746 154.94 474.742C140.026 436.804 124.978 398.95 110.294 360.908C109.43 358.666 108.469 357.263 107.239 356.404C105.317 355.105 103.203 355.294 102.395 355.356C98.2826 355.692 89.365 355.566 76.7382 355.21C91.4791 341.426 115.983 322.677 149.578 313.732C155.574 312.14 171.218 308.369 191.744 308.369C216.901 308.369 236.313 314.067 245.73 317.272C274.885 327.222 295.795 343.437 308.364 355.063C295.853 355.608 287.031 355.775 282.515 355.335C281.669 355.252 279.401 355 277.287 356.383C275.865 357.326 274.789 358.981 273.751 361.683C256.281 407.016 238.273 452.118 220.457 497.283C211.443 520.117 202.487 542.993 193.493 565.848C193.243 566.497 192.686 567.021 191.686 568.445L191.706 568.487Z" fill="#1754AC"/>
<path d="M707.326 355.503C718.146 345.259 758.756 309.291 820.275 308.034C885.927 306.693 929.631 345.825 939.817 355.461C930.592 355.461 922.366 355.671 914.14 355.377C910.258 355.231 908.298 356.53 906.722 360.636C889.559 405.005 872.224 449.311 854.831 493.575C845.106 518.294 835.17 542.909 824.734 569.095C820.698 559.312 817.066 550.89 813.703 542.322C798.866 504.406 784.144 466.426 769.307 428.509C760.447 405.843 751.376 383.26 742.612 360.531C741.843 358.541 740.959 357.2 739.768 356.383C737.923 355.105 735.885 355.336 735.136 355.356C731.004 355.419 721.144 355.419 707.288 355.503H707.326Z" fill="#1754AC"/>
<path d="M915.599 461.901C915.599 520.159 915.715 578.438 915.446 636.696C915.446 637.848 914.946 642.289 917.329 644.468C919.001 645.997 921.288 645.494 923.633 645.494C926.977 645.494 933.223 645.494 939.45 645.536C932.339 653.099 910.506 669.082 899.071 674.613C887.636 680.143 876.604 684.542 865.899 687.349C838.57 694.514 810.856 695.059 783.527 687.873C756.14 680.667 730.156 666.904 707.209 645.536C714.205 645.536 721.219 645.662 726.14 645.662C732.808 645.662 734.135 643.399 734.077 636.738C733.789 605.65 733.942 574.541 733.942 543.454V461.314C733.942 461.314 737.21 468.814 738.132 471.181C759.734 526.339 780.241 582.041 801.151 637.555C803.265 643.148 805.706 646.269 812.009 645.746C821.331 645.997 829.825 645.913 839.358 645.641C843.279 645.536 845.22 644.468 846.738 640.362C856.117 615.014 866.399 590.064 875.393 564.528C892.998 514.482 893.478 516.954 915.638 460.016C915.407 460.602 915.618 461.272 915.599 461.901Z" fill="#1754AC"/>
<path d="M138.104 555.332C155.593 601.712 168.373 635.146 169.43 637.911C169.796 638.854 170.968 641.828 173.409 643.546C175.273 644.866 177.445 645.306 177.445 645.306C178.194 645.452 178.79 645.473 179.001 645.494C188.15 645.892 197.317 645.494 206.465 645.494C207.503 645.494 209.828 645.494 211.943 643.923C211.943 643.923 213.422 642.813 214.441 640.865C218.554 632.904 265.813 505.39 277.94 473.339C279.42 469.401 281.092 465.546 283.514 459.639C283.456 482.661 283.475 501.368 283.514 514.105C283.59 540.877 283.706 546.868 283.725 574.143C283.725 575.17 283.725 586.503 283.725 612.752V637.932C283.84 639.398 283.936 640.865 284.052 642.331C284.148 642.75 284.398 643.483 284.974 644.133C285.589 644.803 286.281 644.992 286.915 645.18C286.915 645.18 287.972 645.494 290.586 645.494C290.586 645.494 290.644 645.494 291.893 645.494H308.921C298.082 655.612 256.742 691.77 194.357 692.419C129.82 693.089 86.8853 655.319 76.3726 645.494H95.5146C97.0905 645.557 99.3968 645.348 100.877 643.63C102.395 641.87 102.318 639.335 102.299 638.435C102.164 633.072 102.145 609.609 102.03 577.349C102.03 541.82 102.03 506.291 102.03 470.762V463.43C114.061 494.078 126.073 524.705 138.104 555.353V555.332Z" fill="#1754AC"/>
<path d="M969.205 608.729C969.186 536.352 969.166 463.975 969.147 391.598C978.968 407.77 985.022 422.664 988.808 433.872C999.167 464.624 999.974 490.265 1000.07 499.106C1000.24 516.661 998.129 530.864 996.457 539.662C990.749 569.451 979.276 592.683 969.224 608.729H969.205Z" fill="#1754AC"/>
<path d="M46.8479 608.625C6.31531 546.764 5.12374 456.077 46.8479 391.137V608.625Z" fill="#1754AC"/>
</g>
<defs>
<clipPath id="clip0_1_14">
<rect width="1000" height="1000" fill="white"/>
</clipPath>
</defs>
</svg>
