<svg width="44" height="44" viewBox="0 0 44 44" fill="none" xmlns="http://www.w3.org/2000/svg">
<path d="M43.2467 7.11157C43.2467 3.4666 40.2919 0.51178 36.6469 0.51178H6.94781C3.30285 0.51178 0.348022 3.46661 0.348022 7.11157V36.8106C0.348022 40.4556 3.30285 43.4104 6.94782 43.4104H36.6469C40.2919 43.4104 43.2467 40.4556 43.2467 36.8106V7.11157Z" fill="#F00073"/>
<path d="M21.7974 12.845C24.7467 12.845 25.1488 12.845 26.3554 12.845C27.4278 12.845 27.9641 13.1132 28.3662 13.2472C28.9025 13.5153 29.3046 13.6494 29.7068 14.0516C30.109 14.4537 30.3771 14.8559 30.5112 15.3922C30.6452 15.7943 30.7793 16.3306 30.9133 17.403C30.9133 18.6096 30.9133 18.8777 30.9133 21.961C30.9133 25.0443 30.9133 25.3125 30.9133 26.519C30.9133 27.5915 30.6452 28.1277 30.5112 28.5299C30.243 29.0661 30.109 29.4683 29.7068 29.8704C29.3046 30.2726 28.9025 30.5407 28.3662 30.6748C27.9641 30.8089 27.4278 30.9429 26.3554 31.077C25.1488 31.077 24.8807 31.077 21.7974 31.077C18.714 31.077 18.4459 31.077 17.2394 31.077C16.1669 31.077 15.6307 30.8089 15.2285 30.6748C14.6923 30.4067 14.2901 30.2726 13.8879 29.8704C13.4858 29.4683 13.2176 29.0661 13.0836 28.5299C12.9495 28.1277 12.8155 27.5915 12.6814 26.519C12.6814 25.3125 12.6814 25.0443 12.6814 21.961C12.6814 18.8777 12.6814 18.6096 12.6814 17.403C12.6814 16.3306 12.9495 15.7943 13.0836 15.3922C13.3517 14.8559 13.4858 14.4537 13.8879 14.0516C14.2901 13.6494 14.6923 13.3813 15.2285 13.2472C15.6307 13.1132 16.1669 12.9791 17.2394 12.845C18.4459 12.845 18.8481 12.845 21.7974 12.845ZM21.7974 10.8342C18.714 10.8342 18.4459 10.8342 17.2394 10.8342C16.0329 10.8342 15.2285 11.1023 14.5582 11.3704C13.8879 11.6385 13.2176 12.0407 12.5473 12.711C11.8771 13.3813 11.6089 13.9175 11.2068 14.7219C10.9386 15.3922 10.8046 16.1965 10.6705 17.403C10.6705 18.6096 10.6705 19.0117 10.6705 21.961C10.6705 25.0443 10.6705 25.3125 10.6705 26.519C10.6705 27.7255 10.9386 28.5299 11.2068 29.2002C11.4749 29.8704 11.8771 30.5407 12.5473 31.211C13.2176 31.8813 13.7539 32.1494 14.5582 32.5516C15.2285 32.8197 16.0329 32.9538 17.2394 33.0878C18.4459 33.0878 18.8481 33.0878 21.7974 33.0878C24.7467 33.0878 25.1488 33.0878 26.3554 33.0878C27.5619 33.0878 28.3662 32.8197 29.0365 32.5516C29.7068 32.2835 30.3771 31.8813 31.0474 31.211C31.7177 30.5407 31.9858 30.0045 32.388 29.2002C32.6561 28.5299 32.7902 27.7255 32.9242 26.519C32.9242 25.3125 32.9242 24.9103 32.9242 21.961C32.9242 19.0117 32.9242 18.6096 32.9242 17.403C32.9242 16.1965 32.6561 15.3922 32.388 14.7219C32.1199 14.0516 31.7177 13.3813 31.0474 12.711C30.3771 12.0407 29.8409 11.7726 29.0365 11.3704C28.3662 11.1023 27.5619 10.9682 26.3554 10.8342C25.1488 10.8342 24.8807 10.8342 21.7974 10.8342Z" fill="white"/>
<path d="M21.7974 16.1965C18.58 16.1965 16.0329 18.7436 16.0329 21.961C16.0329 25.1784 18.58 27.7255 21.7974 27.7255C25.0148 27.7255 27.5619 25.1784 27.5619 21.961C27.5619 18.7436 25.0148 16.1965 21.7974 16.1965ZM21.7974 25.7146C19.7865 25.7146 18.0437 24.1059 18.0437 21.961C18.0437 19.9501 19.6524 18.2074 21.7974 18.2074C23.8082 18.2074 25.551 19.8161 25.551 21.961C25.551 23.9719 23.8082 25.7146 21.7974 25.7146Z" fill="white"/>
<path d="M27.6959 17.403C28.4363 17.403 29.0365 16.8028 29.0365 16.0624C29.0365 15.3221 28.4363 14.7219 27.6959 14.7219C26.9556 14.7219 26.3554 15.3221 26.3554 16.0624C26.3554 16.8028 26.9556 17.403 27.6959 17.403Z" fill="white"/>
</svg>
