<svg width="43" height="44" viewBox="0 0 43 44" fill="none" xmlns="http://www.w3.org/2000/svg">
<path d="M36.1957 0.51178H6.70292C3.001 0.51178 0 3.51278 0 7.21469V36.7075C0 40.4094 3.001 43.4104 6.70292 43.4104H36.1957C39.8977 43.4104 42.8987 40.4094 42.8987 36.7075V7.21469C42.8987 3.51278 39.8977 0.51178 36.1957 0.51178Z" fill="#2867B2"/>
<path d="M15.5507 32.6857H10.9927V18.3414H15.5507V32.6857ZM13.2717 16.3305C11.7971 16.3305 10.7246 15.2581 10.7246 13.7834C10.7246 12.3088 11.9311 11.2363 13.2717 11.2363C14.7464 11.2363 15.8188 12.3088 15.8188 13.7834C15.8188 15.2581 14.7464 16.3305 13.2717 16.3305ZM32.1739 32.6857H27.616V24.9103C27.616 22.6313 26.6775 21.961 25.337 21.961C23.9964 21.961 22.6558 23.0335 22.6558 25.0443V32.6857H18.0978V18.3414H22.3877V20.3523C22.7899 19.4139 24.3985 17.9392 26.6775 17.9392C29.2246 17.9392 31.9058 19.4139 31.9058 23.8378V32.6857H32.1739Z" fill="white"/>
</svg>
