<svg width="1090" height="440" viewBox="0 0 1090 440" fill="none" xmlns="http://www.w3.org/2000/svg">
<path d="M14.8125 418.844C15.099 418.427 15.4245 417.815 15.7891 417.008C16.1536 416.174 16.4401 415.133 16.6484 413.883C16.9349 412.06 17.2474 410.016 17.5859 407.75C17.9505 405.458 18.3151 403.062 18.6797 400.562C19.0703 398.062 19.4479 395.51 19.8125 392.906C20.2031 390.276 20.5677 387.698 20.9062 385.172C21.2708 382.62 21.6094 380.172 21.9219 377.828C22.2604 375.458 22.5599 373.297 22.8203 371.344C23.0807 369.391 23.2891 367.698 23.4453 366.266C23.6276 364.807 23.7578 363.714 23.8359 362.984H28.7969L53.3672 408.922L77.7422 362.984H81.4531L87.8594 409.391C88.0417 410.849 88.237 412.099 88.4453 413.141C88.6536 414.182 88.862 415.081 89.0703 415.836C89.2786 416.565 89.474 417.177 89.6562 417.672C89.8646 418.141 90.0599 418.531 90.2422 418.844V419H80.3984V418.844C80.5286 418.557 80.6458 418.089 80.75 417.438C80.8802 416.786 80.9453 416.005 80.9453 415.094C80.9453 414.755 80.9323 414.417 80.9062 414.078C80.8802 413.714 80.8411 413.323 80.7891 412.906L75.8281 375.484L52.7812 418.844L50.0859 418.531L26.8828 375.094C25.9714 381.266 25.1771 386.969 24.5 392.203C24.2135 394.443 23.9271 396.682 23.6406 398.922C23.3542 401.135 23.0938 403.206 22.8594 405.133C22.651 407.06 22.4818 408.766 22.3516 410.25C22.2214 411.708 22.1562 412.789 22.1562 413.492C22.1562 414.378 22.1823 415.159 22.2344 415.836C22.2865 416.513 22.3385 417.086 22.3906 417.555C22.4688 418.102 22.5469 418.583 22.625 419H14.8125V418.844ZM124.617 362.047C128.966 362.047 132.977 362.763 136.648 364.195C140.346 365.602 143.536 367.594 146.219 370.172C148.901 372.724 150.997 375.797 152.508 379.391C154.018 382.984 154.773 386.956 154.773 391.305C154.773 393.779 154.487 396.214 153.914 398.609C153.341 401.005 152.495 403.271 151.375 405.406C150.281 407.542 148.927 409.521 147.312 411.344C145.698 413.141 143.849 414.703 141.766 416.031C139.708 417.333 137.43 418.349 134.93 419.078C132.43 419.833 129.734 420.211 126.844 420.211C122.495 420.211 118.471 419.521 114.773 418.141C111.102 416.734 107.924 414.755 105.242 412.203C102.56 409.651 100.464 406.591 98.9531 403.023C97.4427 399.43 96.6875 395.445 96.6875 391.07C96.6875 388.596 96.974 386.161 97.5469 383.766C98.1198 381.37 98.9531 379.091 100.047 376.93C101.167 374.768 102.521 372.789 104.109 370.992C105.724 369.169 107.56 367.594 109.617 366.266C111.701 364.938 113.992 363.909 116.492 363.18C119.018 362.424 121.727 362.047 124.617 362.047ZM126.844 416.695C129.734 416.695 132.378 416.174 134.773 415.133C137.169 414.091 139.227 412.581 140.945 410.602C142.69 408.622 144.044 406.214 145.008 403.375C145.971 400.51 146.453 397.268 146.453 393.648C146.453 389.638 145.984 385.927 145.047 382.516C144.135 379.078 142.768 376.109 140.945 373.609C139.122 371.083 136.844 369.117 134.109 367.711C131.401 366.279 128.237 365.562 124.617 365.562C121.727 365.562 119.083 366.083 116.688 367.125C114.292 368.141 112.221 369.625 110.477 371.578C108.758 373.531 107.417 375.927 106.453 378.766C105.49 381.604 105.008 384.833 105.008 388.453C105.008 392.438 105.464 396.161 106.375 399.625C107.286 403.062 108.654 406.044 110.477 408.57C112.299 411.096 114.578 413.089 117.312 414.547C120.047 415.979 123.224 416.695 126.844 416.695ZM202.352 392.203C201.31 392.177 200.008 392.164 198.445 392.164C196.883 392.138 195.177 392.112 193.328 392.086C191.505 392.06 189.591 392.047 187.586 392.047C185.607 392.021 183.667 392.008 181.766 392.008C179.865 391.982 178.055 391.982 176.336 392.008C174.617 392.034 173.12 392.073 171.844 392.125V403.727C171.844 405.94 171.87 407.88 171.922 409.547C172 411.188 172.078 412.607 172.156 413.805C172.26 415.003 172.378 416.005 172.508 416.812C172.664 417.62 172.82 418.297 172.977 418.844V419H163.602V418.844C163.758 418.297 163.901 417.62 164.031 416.812C164.188 416.005 164.318 415.003 164.422 413.805C164.526 412.607 164.604 411.188 164.656 409.547C164.708 407.88 164.734 405.94 164.734 403.727V378.297C164.734 376.083 164.708 374.156 164.656 372.516C164.604 370.849 164.526 369.417 164.422 368.219C164.318 366.995 164.188 365.979 164.031 365.172C163.901 364.365 163.758 363.688 163.602 363.141V362.984H172.977V363.141C172.82 363.688 172.664 364.365 172.508 365.172C172.378 365.979 172.26 366.995 172.156 368.219C172.078 369.417 172 370.849 171.922 372.516C171.87 374.156 171.844 376.083 171.844 378.297V388.297C173.198 388.349 174.734 388.388 176.453 388.414C178.172 388.414 179.969 388.414 181.844 388.414C183.719 388.388 185.62 388.362 187.547 388.336C189.5 388.31 191.375 388.284 193.172 388.258C194.995 388.206 196.688 388.154 198.25 388.102C199.839 388.049 201.206 387.997 202.352 387.945V378.297C202.352 376.083 202.312 374.156 202.234 372.516C202.182 370.849 202.104 369.417 202 368.219C201.922 366.995 201.805 365.979 201.648 365.172C201.518 364.365 201.375 363.688 201.219 363.141V362.984H210.594V363.141C210.438 363.688 210.281 364.365 210.125 365.172C209.995 365.979 209.878 366.995 209.773 368.219C209.669 369.417 209.591 370.849 209.539 372.516C209.487 374.156 209.461 376.083 209.461 378.297V403.727C209.461 405.94 209.487 407.88 209.539 409.547C209.591 411.188 209.669 412.607 209.773 413.805C209.878 415.003 209.995 416.005 210.125 416.812C210.281 417.62 210.438 418.297 210.594 418.844V419H201.219V418.844C201.375 418.297 201.518 417.62 201.648 416.812C201.805 416.005 201.922 415.003 202 413.805C202.104 412.607 202.182 411.188 202.234 409.547C202.312 407.88 202.352 405.94 202.352 403.727V392.203ZM222.156 418.844C222.312 418.297 222.456 417.62 222.586 416.812C222.716 416.005 222.833 415.003 222.938 413.805C223.042 412.607 223.12 411.188 223.172 409.547C223.224 407.88 223.25 405.94 223.25 403.727V378.297C223.25 376.083 223.224 374.156 223.172 372.516C223.12 370.849 223.042 369.417 222.938 368.219C222.833 366.995 222.716 365.979 222.586 365.172C222.456 364.365 222.312 363.688 222.156 363.141V362.984H231.492V363.141C231.336 363.688 231.18 364.365 231.023 365.172C230.893 365.979 230.776 366.995 230.672 368.219C230.594 369.417 230.516 370.849 230.438 372.516C230.385 374.156 230.359 376.083 230.359 378.297V403.727C230.359 405.94 230.385 407.88 230.438 409.547C230.516 411.188 230.594 412.607 230.672 413.805C230.776 415.003 230.893 416.005 231.023 416.812C231.18 417.62 231.336 418.297 231.492 418.844V419H222.156V418.844ZM257.781 366.422C254.708 366.422 251.935 366.565 249.461 366.852C246.987 367.112 244.852 367.398 243.055 367.711C240.971 368.102 239.109 368.531 237.469 369L238.602 362.672C238.914 362.698 239.383 362.724 240.008 362.75C240.633 362.776 241.323 362.802 242.078 362.828C242.859 362.854 243.667 362.88 244.5 362.906C245.359 362.906 246.167 362.919 246.922 362.945C247.677 362.945 248.341 362.958 248.914 362.984C249.513 362.984 249.943 362.984 250.203 362.984H272.508C272.768 362.984 273.185 362.984 273.758 362.984C274.357 362.958 275.034 362.945 275.789 362.945C276.544 362.919 277.339 362.906 278.172 362.906C279.031 362.88 279.839 362.854 280.594 362.828C281.375 362.802 282.078 362.776 282.703 362.75C283.328 362.724 283.797 362.698 284.109 362.672L285.242 369C283.576 368.531 281.701 368.102 279.617 367.711C277.82 367.398 275.685 367.112 273.211 366.852C270.737 366.565 267.964 366.422 264.891 366.422V403.727C264.891 405.94 264.917 407.88 264.969 409.547C265.047 411.188 265.125 412.607 265.203 413.805C265.307 415.003 265.424 416.005 265.555 416.812C265.711 417.62 265.867 418.297 266.023 418.844V419H256.688V418.844C256.844 418.297 256.987 417.62 257.117 416.812C257.247 416.005 257.365 415.003 257.469 413.805C257.573 412.607 257.651 411.188 257.703 409.547C257.755 407.88 257.781 405.94 257.781 403.727V366.422ZM312.078 418.844C312.365 418.427 312.69 417.815 313.055 417.008C313.419 416.174 313.706 415.133 313.914 413.883C314.201 412.06 314.513 410.016 314.852 407.75C315.216 405.458 315.581 403.062 315.945 400.562C316.336 398.062 316.714 395.51 317.078 392.906C317.469 390.276 317.833 387.698 318.172 385.172C318.536 382.62 318.875 380.172 319.188 377.828C319.526 375.458 319.826 373.297 320.086 371.344C320.346 369.391 320.555 367.698 320.711 366.266C320.893 364.807 321.023 363.714 321.102 362.984H326.062L350.633 408.922L375.008 362.984H378.719L385.125 409.391C385.307 410.849 385.503 412.099 385.711 413.141C385.919 414.182 386.128 415.081 386.336 415.836C386.544 416.565 386.74 417.177 386.922 417.672C387.13 418.141 387.326 418.531 387.508 418.844V419H377.664V418.844C377.794 418.557 377.911 418.089 378.016 417.438C378.146 416.786 378.211 416.005 378.211 415.094C378.211 414.755 378.198 414.417 378.172 414.078C378.146 413.714 378.107 413.323 378.055 412.906L373.094 375.484L350.047 418.844L347.352 418.531L324.148 375.094C323.237 381.266 322.443 386.969 321.766 392.203C321.479 394.443 321.193 396.682 320.906 398.922C320.62 401.135 320.359 403.206 320.125 405.133C319.917 407.06 319.747 408.766 319.617 410.25C319.487 411.708 319.422 412.789 319.422 413.492C319.422 414.378 319.448 415.159 319.5 415.836C319.552 416.513 319.604 417.086 319.656 417.555C319.734 418.102 319.812 418.583 319.891 419H312.078V418.844ZM421.883 362.047C426.232 362.047 430.242 362.763 433.914 364.195C437.612 365.602 440.802 367.594 443.484 370.172C446.167 372.724 448.263 375.797 449.773 379.391C451.284 382.984 452.039 386.956 452.039 391.305C452.039 393.779 451.753 396.214 451.18 398.609C450.607 401.005 449.76 403.271 448.641 405.406C447.547 407.542 446.193 409.521 444.578 411.344C442.964 413.141 441.115 414.703 439.031 416.031C436.974 417.333 434.695 418.349 432.195 419.078C429.695 419.833 427 420.211 424.109 420.211C419.76 420.211 415.737 419.521 412.039 418.141C408.367 416.734 405.19 414.755 402.508 412.203C399.826 409.651 397.729 406.591 396.219 403.023C394.708 399.43 393.953 395.445 393.953 391.07C393.953 388.596 394.24 386.161 394.812 383.766C395.385 381.37 396.219 379.091 397.312 376.93C398.432 374.768 399.786 372.789 401.375 370.992C402.99 369.169 404.826 367.594 406.883 366.266C408.966 364.938 411.258 363.909 413.758 363.18C416.284 362.424 418.992 362.047 421.883 362.047ZM424.109 416.695C427 416.695 429.643 416.174 432.039 415.133C434.435 414.091 436.492 412.581 438.211 410.602C439.956 408.622 441.31 406.214 442.273 403.375C443.237 400.51 443.719 397.268 443.719 393.648C443.719 389.638 443.25 385.927 442.312 382.516C441.401 379.078 440.034 376.109 438.211 373.609C436.388 371.083 434.109 369.117 431.375 367.711C428.667 366.279 425.503 365.562 421.883 365.562C418.992 365.562 416.349 366.083 413.953 367.125C411.557 368.141 409.487 369.625 407.742 371.578C406.023 373.531 404.682 375.927 403.719 378.766C402.755 381.604 402.273 384.833 402.273 388.453C402.273 392.438 402.729 396.161 403.641 399.625C404.552 403.062 405.919 406.044 407.742 408.57C409.565 411.096 411.844 413.089 414.578 414.547C417.312 415.979 420.49 416.695 424.109 416.695ZM460.867 418.844C461.023 418.297 461.167 417.62 461.297 416.812C461.453 416.005 461.583 415.003 461.688 413.805C461.792 412.607 461.87 411.188 461.922 409.547C461.974 407.88 462 405.94 462 403.727V378.297C462 376.083 461.974 374.156 461.922 372.516C461.87 370.849 461.792 369.417 461.688 368.219C461.583 366.995 461.453 365.979 461.297 365.172C461.167 364.365 461.023 363.688 460.867 363.141V362.984H470.242V363.141C470.086 363.688 469.93 364.365 469.773 365.172C469.643 365.979 469.526 366.995 469.422 368.219C469.344 369.417 469.266 370.849 469.188 372.516C469.135 374.156 469.109 376.083 469.109 378.297V387.008L491.922 368.375C494.474 366.292 495.75 364.495 495.75 362.984H506.727V363.141C505.19 363.505 503.628 364.208 502.039 365.25C500.477 366.266 498.81 367.516 497.039 369L476.883 385.875L501.141 412.516C502.156 413.557 503.016 414.43 503.719 415.133C504.448 415.81 505.086 416.383 505.633 416.852C506.18 417.294 506.674 417.672 507.117 417.984C507.586 418.271 508.068 418.557 508.562 418.844V419H497.117C497.013 418.766 496.831 418.466 496.57 418.102C496.336 417.737 496.049 417.359 495.711 416.969C495.398 416.578 495.047 416.174 494.656 415.758C494.292 415.341 493.94 414.951 493.602 414.586L469.109 387.711V403.727C469.109 405.94 469.135 407.88 469.188 409.547C469.266 411.188 469.344 412.607 469.422 413.805C469.526 415.003 469.643 416.005 469.773 416.812C469.93 417.62 470.086 418.297 470.242 418.844V419H460.867V418.844ZM551.336 419V418.844C551.388 418.714 551.427 418.518 551.453 418.258C551.479 417.997 551.492 417.763 551.492 417.555C551.492 416.747 551.375 415.862 551.141 414.898C550.932 413.909 550.516 412.685 549.891 411.227L545.164 400.602C543.706 400.549 541.766 400.523 539.344 400.523C536.922 400.523 534.305 400.523 531.492 400.523C529.435 400.523 527.443 400.523 525.516 400.523C523.615 400.523 521.896 400.549 520.359 400.602L515.867 410.914C515.477 411.878 515.06 412.932 514.617 414.078C514.174 415.224 513.953 416.383 513.953 417.555C513.953 417.893 513.979 418.18 514.031 418.414C514.083 418.622 514.135 418.766 514.188 418.844V419H506.219V418.844C506.688 418.349 507.273 417.477 507.977 416.227C508.68 414.951 509.448 413.362 510.281 411.461L532.664 361.812H535.789L557 409.547C557.495 410.667 558.003 411.76 558.523 412.828C559.07 413.87 559.578 414.807 560.047 415.641C560.516 416.474 560.932 417.177 561.297 417.75C561.661 418.323 561.909 418.688 562.039 418.844V419H551.336ZM526.023 397.164C527.534 397.164 529.083 397.164 530.672 397.164C532.26 397.138 533.81 397.125 535.32 397.125C536.857 397.099 538.328 397.086 539.734 397.086C541.141 397.06 542.417 397.034 543.562 397.008L532.586 372.203L521.805 397.164H526.023ZM575.125 415.562C578.198 415.562 581.023 415.432 583.602 415.172C586.18 414.911 588.432 414.612 590.359 414.273C592.599 413.909 594.643 413.479 596.492 412.984L595.359 419.312C595.047 419.286 594.578 419.26 593.953 419.234C593.328 419.208 592.625 419.182 591.844 419.156C591.089 419.13 590.281 419.104 589.422 419.078C588.589 419.078 587.794 419.065 587.039 419.039C586.284 419.039 585.607 419.026 585.008 419C584.435 419 584.018 419 583.758 419H566.883V418.844C567.039 418.297 567.182 417.62 567.312 416.812C567.469 416.005 567.599 415.003 567.703 413.805C567.807 412.607 567.885 411.188 567.938 409.547C567.99 407.88 568.016 405.94 568.016 403.727V378.297C568.016 376.083 567.99 374.156 567.938 372.516C567.885 370.849 567.807 369.417 567.703 368.219C567.599 366.995 567.469 365.979 567.312 365.172C567.182 364.365 567.039 363.688 566.883 363.141V362.984H576.258V363.141C576.102 363.688 575.945 364.365 575.789 365.172C575.659 365.979 575.542 366.995 575.438 368.219C575.359 369.417 575.281 370.849 575.203 372.516C575.151 374.156 575.125 376.083 575.125 378.297V415.562ZM624.891 418.844C625.177 418.427 625.503 417.815 625.867 417.008C626.232 416.174 626.518 415.133 626.727 413.883C627.013 412.06 627.326 410.016 627.664 407.75C628.029 405.458 628.393 403.062 628.758 400.562C629.148 398.062 629.526 395.51 629.891 392.906C630.281 390.276 630.646 387.698 630.984 385.172C631.349 382.62 631.688 380.172 632 377.828C632.339 375.458 632.638 373.297 632.898 371.344C633.159 369.391 633.367 367.698 633.523 366.266C633.706 364.807 633.836 363.714 633.914 362.984H638.875L663.445 408.922L687.82 362.984H691.531L697.938 409.391C698.12 410.849 698.315 412.099 698.523 413.141C698.732 414.182 698.94 415.081 699.148 415.836C699.357 416.565 699.552 417.177 699.734 417.672C699.943 418.141 700.138 418.531 700.32 418.844V419H690.477V418.844C690.607 418.557 690.724 418.089 690.828 417.438C690.958 416.786 691.023 416.005 691.023 415.094C691.023 414.755 691.01 414.417 690.984 414.078C690.958 413.714 690.919 413.323 690.867 412.906L685.906 375.484L662.859 418.844L660.164 418.531L636.961 375.094C636.049 381.266 635.255 386.969 634.578 392.203C634.292 394.443 634.005 396.682 633.719 398.922C633.432 401.135 633.172 403.206 632.938 405.133C632.729 407.06 632.56 408.766 632.43 410.25C632.299 411.708 632.234 412.789 632.234 413.492C632.234 414.378 632.26 415.159 632.312 415.836C632.365 416.513 632.417 417.086 632.469 417.555C632.547 418.102 632.625 418.583 632.703 419H624.891V418.844ZM709.148 362.984C712.404 362.984 715.633 362.971 718.836 362.945C722.065 362.919 725.021 362.893 727.703 362.867C730.385 362.815 732.677 362.75 734.578 362.672C736.479 362.594 737.768 362.49 738.445 362.359L736.531 367.555C735.672 367.32 734.669 367.112 733.523 366.93C732.534 366.773 731.323 366.63 729.891 366.5C728.484 366.344 726.857 366.266 725.008 366.266C724.383 366.266 723.628 366.292 722.742 366.344C721.883 366.37 721.049 366.409 720.242 366.461C719.305 366.513 718.354 366.565 717.391 366.617V387.945C720.073 387.919 722.495 387.841 724.656 387.711C726.818 387.581 728.654 387.451 730.164 387.32C731.935 387.164 733.497 386.982 734.852 386.773L733.641 392.438C731.844 392.203 730.008 391.982 728.133 391.773C726.518 391.591 724.76 391.435 722.859 391.305C720.958 391.148 719.135 391.07 717.391 391.07V415.562C720.464 415.562 723.289 415.432 725.867 415.172C728.445 414.911 730.698 414.612 732.625 414.273C734.865 413.909 736.909 413.479 738.758 412.984L737.625 419.312C737.312 419.286 736.844 419.26 736.219 419.234C735.594 419.208 734.891 419.182 734.109 419.156C733.354 419.13 732.547 419.104 731.688 419.078C730.854 419.078 730.06 419.065 729.305 419.039C728.549 419.039 727.872 419.026 727.273 419C726.701 419 726.284 419 726.023 419H709.148V418.844C709.305 418.297 709.448 417.62 709.578 416.812C709.734 416.005 709.865 415.003 709.969 413.805C710.073 412.607 710.151 411.188 710.203 409.547C710.255 407.88 710.281 405.94 710.281 403.727V378.297C710.281 376.083 710.255 374.156 710.203 372.516C710.151 370.849 710.073 369.417 709.969 368.219C709.865 366.995 709.734 365.979 709.578 365.172C709.448 364.365 709.305 363.688 709.148 363.141V362.984ZM756.922 366.344C756.87 369.26 756.818 372.086 756.766 374.82C756.74 375.992 756.714 377.19 756.688 378.414C756.688 379.638 756.674 380.849 756.648 382.047C756.648 383.219 756.635 384.352 756.609 385.445C756.609 386.513 756.609 387.464 756.609 388.297C756.609 390.042 756.622 392.151 756.648 394.625C756.674 397.099 756.701 399.638 756.727 402.242C756.779 404.846 756.844 407.346 756.922 409.742C757 412.138 757.091 414.13 757.195 415.719C757.56 415.771 758.042 415.836 758.641 415.914C759.266 415.966 759.917 416.018 760.594 416.07C761.271 416.096 761.935 416.122 762.586 416.148C763.237 416.174 763.784 416.188 764.227 416.188C766.049 416.188 767.911 416.07 769.812 415.836C771.74 415.576 773.589 415.107 775.359 414.43C777.156 413.753 778.836 412.828 780.398 411.656C781.987 410.458 783.367 408.922 784.539 407.047C785.737 405.172 786.674 402.919 787.352 400.289C788.029 397.633 788.367 394.508 788.367 390.914C788.367 386.93 787.885 383.388 786.922 380.289C785.958 377.164 784.539 374.534 782.664 372.398C780.815 370.263 778.51 368.648 775.75 367.555C773.016 366.435 769.865 365.875 766.297 365.875C765.594 365.875 764.799 365.901 763.914 365.953C763.029 365.979 762.143 366.018 761.258 366.07C760.398 366.096 759.578 366.148 758.797 366.227C758.042 366.279 757.417 366.318 756.922 366.344ZM748.367 362.828C748.966 362.854 749.526 362.88 750.047 362.906C750.49 362.932 750.945 362.958 751.414 362.984C751.883 362.984 752.26 362.984 752.547 362.984C753.042 362.984 753.862 362.958 755.008 362.906C756.18 362.854 757.508 362.802 758.992 362.75C760.477 362.698 762.013 362.646 763.602 362.594C765.216 362.542 766.727 362.516 768.133 362.516C771.909 362.516 775.503 362.984 778.914 363.922C782.326 364.859 785.32 366.396 787.898 368.531C790.477 370.667 792.521 373.466 794.031 376.93C795.542 380.393 796.297 384.651 796.297 389.703C796.297 393.323 795.893 396.578 795.086 399.469C794.305 402.359 793.198 404.911 791.766 407.125C790.333 409.339 788.615 411.24 786.609 412.828C784.63 414.391 782.43 415.68 780.008 416.695C777.612 417.711 775.047 418.453 772.312 418.922C769.578 419.391 766.753 419.625 763.836 419.625C762.794 419.625 761.531 419.586 760.047 419.508C758.589 419.456 757.117 419.391 755.633 419.312C754.148 419.234 752.742 419.156 751.414 419.078C750.112 419.026 749.096 419 748.367 419V418.844C748.523 418.297 748.667 417.62 748.797 416.812C748.953 416.005 749.083 415.003 749.188 413.805C749.292 412.607 749.37 411.188 749.422 409.547C749.474 407.88 749.5 405.94 749.5 403.727V378.297C749.5 376.083 749.474 374.143 749.422 372.477C749.37 370.784 749.292 369.339 749.188 368.141C749.083 366.917 748.953 365.888 748.797 365.055C748.667 364.221 748.523 363.531 748.367 362.984V362.828ZM805.828 418.844C805.984 418.297 806.128 417.62 806.258 416.812C806.388 416.005 806.505 415.003 806.609 413.805C806.714 412.607 806.792 411.188 806.844 409.547C806.896 407.88 806.922 405.94 806.922 403.727V378.297C806.922 376.083 806.896 374.156 806.844 372.516C806.792 370.849 806.714 369.417 806.609 368.219C806.505 366.995 806.388 365.979 806.258 365.172C806.128 364.365 805.984 363.688 805.828 363.141V362.984H815.164V363.141C815.008 363.688 814.852 364.365 814.695 365.172C814.565 365.979 814.448 366.995 814.344 368.219C814.266 369.417 814.188 370.849 814.109 372.516C814.057 374.156 814.031 376.083 814.031 378.297V403.727C814.031 405.94 814.057 407.88 814.109 409.547C814.188 411.188 814.266 412.607 814.344 413.805C814.448 415.003 814.565 416.005 814.695 416.812C814.852 417.62 815.008 418.297 815.164 418.844V419H805.828V418.844ZM865.477 419V418.844C865.529 418.714 865.568 418.518 865.594 418.258C865.62 417.997 865.633 417.763 865.633 417.555C865.633 416.747 865.516 415.862 865.281 414.898C865.073 413.909 864.656 412.685 864.031 411.227L859.305 400.602C857.846 400.549 855.906 400.523 853.484 400.523C851.062 400.523 848.445 400.523 845.633 400.523C843.576 400.523 841.583 400.523 839.656 400.523C837.755 400.523 836.036 400.549 834.5 400.602L830.008 410.914C829.617 411.878 829.201 412.932 828.758 414.078C828.315 415.224 828.094 416.383 828.094 417.555C828.094 417.893 828.12 418.18 828.172 418.414C828.224 418.622 828.276 418.766 828.328 418.844V419H820.359V418.844C820.828 418.349 821.414 417.477 822.117 416.227C822.82 414.951 823.589 413.362 824.422 411.461L846.805 361.812H849.93L871.141 409.547C871.635 410.667 872.143 411.76 872.664 412.828C873.211 413.87 873.719 414.807 874.188 415.641C874.656 416.474 875.073 417.177 875.438 417.75C875.802 418.323 876.049 418.688 876.18 418.844V419H865.477ZM840.164 397.164C841.674 397.164 843.224 397.164 844.812 397.164C846.401 397.138 847.951 397.125 849.461 397.125C850.997 397.099 852.469 397.086 853.875 397.086C855.281 397.06 856.557 397.034 857.703 397.008L846.727 372.203L835.945 397.164H840.164ZM891.766 366.422C888.693 366.422 885.919 366.565 883.445 366.852C880.971 367.112 878.836 367.398 877.039 367.711C874.956 368.102 873.094 368.531 871.453 369L872.586 362.672C872.898 362.698 873.367 362.724 873.992 362.75C874.617 362.776 875.307 362.802 876.062 362.828C876.844 362.854 877.651 362.88 878.484 362.906C879.344 362.906 880.151 362.919 880.906 362.945C881.661 362.945 882.326 362.958 882.898 362.984C883.497 362.984 883.927 362.984 884.188 362.984H906.492C906.753 362.984 907.169 362.984 907.742 362.984C908.341 362.958 909.018 362.945 909.773 362.945C910.529 362.919 911.323 362.906 912.156 362.906C913.016 362.88 913.823 362.854 914.578 362.828C915.359 362.802 916.062 362.776 916.688 362.75C917.312 362.724 917.781 362.698 918.094 362.672L919.227 369C917.56 368.531 915.685 368.102 913.602 367.711C911.805 367.398 909.669 367.112 907.195 366.852C904.721 366.565 901.948 366.422 898.875 366.422V403.727C898.875 405.94 898.901 407.88 898.953 409.547C899.031 411.188 899.109 412.607 899.188 413.805C899.292 415.003 899.409 416.005 899.539 416.812C899.695 417.62 899.852 418.297 900.008 418.844V419H890.672V418.844C890.828 418.297 890.971 417.62 891.102 416.812C891.232 416.005 891.349 415.003 891.453 413.805C891.557 412.607 891.635 411.188 891.688 409.547C891.74 407.88 891.766 405.94 891.766 403.727V366.422ZM925.203 418.844C925.359 418.297 925.503 417.62 925.633 416.812C925.763 416.005 925.88 415.003 925.984 413.805C926.089 412.607 926.167 411.188 926.219 409.547C926.271 407.88 926.297 405.94 926.297 403.727V378.297C926.297 376.083 926.271 374.156 926.219 372.516C926.167 370.849 926.089 369.417 925.984 368.219C925.88 366.995 925.763 365.979 925.633 365.172C925.503 364.365 925.359 363.688 925.203 363.141V362.984H934.539V363.141C934.383 363.688 934.227 364.365 934.07 365.172C933.94 365.979 933.823 366.995 933.719 368.219C933.641 369.417 933.562 370.849 933.484 372.516C933.432 374.156 933.406 376.083 933.406 378.297V403.727C933.406 405.94 933.432 407.88 933.484 409.547C933.562 411.188 933.641 412.607 933.719 413.805C933.823 415.003 933.94 416.005 934.07 416.812C934.227 417.62 934.383 418.297 934.539 418.844V419H925.203V418.844ZM971.648 362.047C975.997 362.047 980.008 362.763 983.68 364.195C987.378 365.602 990.568 367.594 993.25 370.172C995.932 372.724 998.029 375.797 999.539 379.391C1001.05 382.984 1001.8 386.956 1001.8 391.305C1001.8 393.779 1001.52 396.214 1000.95 398.609C1000.37 401.005 999.526 403.271 998.406 405.406C997.312 407.542 995.958 409.521 994.344 411.344C992.729 413.141 990.88 414.703 988.797 416.031C986.74 417.333 984.461 418.349 981.961 419.078C979.461 419.833 976.766 420.211 973.875 420.211C969.526 420.211 965.503 419.521 961.805 418.141C958.133 416.734 954.956 414.755 952.273 412.203C949.591 409.651 947.495 406.591 945.984 403.023C944.474 399.43 943.719 395.445 943.719 391.07C943.719 388.596 944.005 386.161 944.578 383.766C945.151 381.37 945.984 379.091 947.078 376.93C948.198 374.768 949.552 372.789 951.141 370.992C952.755 369.169 954.591 367.594 956.648 366.266C958.732 364.938 961.023 363.909 963.523 363.18C966.049 362.424 968.758 362.047 971.648 362.047ZM973.875 416.695C976.766 416.695 979.409 416.174 981.805 415.133C984.201 414.091 986.258 412.581 987.977 410.602C989.721 408.622 991.076 406.214 992.039 403.375C993.003 400.51 993.484 397.268 993.484 393.648C993.484 389.638 993.016 385.927 992.078 382.516C991.167 379.078 989.799 376.109 987.977 373.609C986.154 371.083 983.875 369.117 981.141 367.711C978.432 366.279 975.268 365.562 971.648 365.562C968.758 365.562 966.115 366.083 963.719 367.125C961.323 368.141 959.253 369.625 957.508 371.578C955.789 373.531 954.448 375.927 953.484 378.766C952.521 381.604 952.039 384.833 952.039 388.453C952.039 392.438 952.495 396.161 953.406 399.625C954.318 403.062 955.685 406.044 957.508 408.57C959.331 411.096 961.609 413.089 964.344 414.547C967.078 415.979 970.255 416.695 973.875 416.695ZM1012.82 362.984L1053.05 405.797V378.297C1053.05 376.083 1053.03 374.156 1052.98 372.516C1052.92 370.849 1052.85 369.417 1052.74 368.219C1052.64 366.995 1052.51 365.979 1052.35 365.172C1052.22 364.365 1052.08 363.688 1051.92 363.141V362.984H1058.88V363.141C1058.72 363.688 1058.58 364.365 1058.45 365.172C1058.32 365.979 1058.2 366.995 1058.09 368.219C1057.99 369.417 1057.91 370.849 1057.86 372.516C1057.81 374.156 1057.78 376.083 1057.78 378.297V419.781H1056.41L1016.18 377.008V403.727C1016.18 405.94 1016.21 407.88 1016.26 409.547C1016.31 411.188 1016.39 412.607 1016.49 413.805C1016.6 415.003 1016.71 416.005 1016.84 416.812C1016.97 417.62 1017.12 418.297 1017.27 418.844V419H1010.32V418.844C1010.48 418.297 1010.62 417.62 1010.75 416.812C1010.91 416.005 1011.04 415.003 1011.14 413.805C1011.24 412.607 1011.32 411.188 1011.38 409.547C1011.43 407.88 1011.45 405.94 1011.45 403.727V378.297C1011.45 376.083 1011.43 374.156 1011.38 372.516C1011.32 370.849 1011.24 369.417 1011.14 368.219C1011.04 366.995 1010.91 365.979 1010.75 365.172C1010.62 364.365 1010.48 363.688 1010.32 363.141V362.984H1012.82Z" fill="#1754AC"/>
<path d="M664.961 109.823C667.4 101.612 670.94 90.2772 676.201 80.1057C679.628 73.4895 683.215 67.6545 686.691 62.6166C686.803 118.719 686.914 174.821 687.042 230.924C682.721 224.578 678.082 216.83 673.793 207.679C669.84 199.245 666.731 189.919 664.706 182.872C664.706 204.618 664.818 227.926 665.089 249.656C665.152 254.694 663.67 256.049 658.743 255.89C648.205 255.523 637.635 255.539 627.097 255.89C622.522 256.049 621.501 254.567 621.517 250.198C621.677 207.44 621.613 164.698 621.613 121.939C621.613 119.851 621.613 117.778 621.613 115.69C621.581 114.941 621.565 114.175 621.533 113.426C614.917 127.312 610.246 138.886 607.296 146.635C593.809 181.995 578.376 216.591 564.14 251.665C562.737 255.14 560.951 255.922 557.619 255.842C549.664 255.651 541.692 255.587 533.737 255.874C529.863 256.017 528.412 254.439 526.993 250.995C521.525 237.699 516.04 224.419 510.556 211.139C497.18 178.823 486.212 145.742 471.576 117.268C470.891 115.929 470.333 114.861 469.982 114.207C469.934 115.961 469.886 118.687 469.854 122.019C469.807 127.184 469.902 235.914 469.966 249.672C469.982 254.662 468.611 256.065 463.669 255.906C453.131 255.539 442.561 255.411 432.038 255.938C426.427 256.225 425.582 254.216 425.645 249.226C425.901 227.56 425.757 205.893 425.422 184.1C423.286 191.067 420.432 198.911 416.558 207.265C412.429 216.145 408.013 223.797 403.82 230.174C403.772 174.327 403.708 118.48 403.66 62.6326C407.056 67.6704 410.516 73.4098 413.816 79.8985C419.508 91.0584 423.254 101.549 425.757 110.524C425.757 94.4541 425.757 80.1217 425.757 65.7733C425.757 57.6266 425.901 49.4639 425.693 41.3172C425.598 37.8736 426.857 36.917 430.173 36.9648C443.9 37.1083 457.642 37.1083 471.369 36.9648C474.637 36.933 476.104 38.0171 477.427 41.1418C499.109 92.0787 520.967 142.92 542.808 193.793C543.589 195.595 544.45 197.364 545.726 200.154C552.151 185.296 558.257 171.33 564.251 157.316C580.816 118.528 597.3 79.6912 614.04 40.9665C614.805 39.1809 617.707 37.2518 619.652 37.204C632.98 36.8692 646.324 37.188 659.652 36.9489C663.845 36.8692 665.073 38.1765 665.041 42.3375C664.849 64.4022 664.961 88.2365 664.961 109.855V109.823Z" fill="#1754AC"/>
<path d="M282.754 198.241C272.439 174.088 262.363 150.493 252.255 126.897C239.884 98.0252 227.401 69.2168 215.22 40.2649C214.503 38.559 213.706 37.4909 212.685 36.8372C211.091 35.8488 209.337 35.9923 208.668 36.0401C205.256 36.2952 197.859 36.1995 187.384 35.9285C199.612 25.4382 219.939 11.1695 247.807 4.36197C252.781 3.15032 265.759 0.28064 282.785 0.28064C303.654 0.28064 319.756 4.61705 327.568 7.05628C351.753 14.6291 369.099 26.9687 379.526 35.8169C369.147 36.2314 361.829 36.3589 358.083 36.0241C357.381 35.9604 355.5 35.7691 353.746 36.8213C352.567 37.5387 351.674 38.7982 350.813 40.8548C336.321 75.3547 321.383 109.679 306.604 144.052C299.127 161.429 291.697 178.839 284.236 196.232C284.029 196.726 283.567 197.125 282.738 198.209L282.754 198.241Z" fill="#1754AC"/>
<path d="M710.477 36.1517C719.453 28.3557 753.14 0.982158 804.173 0.0255972C858.633 -0.994735 894.887 28.7862 903.336 36.1198C895.684 36.1198 888.86 36.2793 882.037 36.0561C878.816 35.9445 877.19 36.9329 875.883 40.0577C861.646 73.8243 847.266 107.543 832.838 141.23C824.771 160.042 816.528 178.775 807.871 198.703C804.523 191.258 801.51 184.849 798.72 178.329C786.412 149.472 774.2 120.568 761.893 91.712C754.543 74.462 747.018 57.2758 739.748 39.978C739.111 38.4634 738.377 37.4431 737.389 36.8213C735.858 35.8488 734.168 36.0242 733.547 36.0401C730.119 36.0879 721.94 36.0879 710.446 36.1517H710.477Z" fill="#1754AC"/>
<path d="M883.247 117.125C883.247 161.461 883.343 205.814 883.119 250.15C883.119 251.027 882.705 254.407 884.682 256.065C886.069 257.229 887.966 256.846 889.911 256.846C892.685 256.846 897.866 256.846 903.032 256.878C897.133 262.634 879.022 274.798 869.536 279.007C860.05 283.216 850.899 286.564 842.019 288.7C819.349 294.152 796.359 294.567 773.689 289.098C750.97 283.614 729.416 273.14 710.38 256.878C716.183 256.878 722.003 256.974 726.084 256.974C731.616 256.974 732.716 255.252 732.668 250.182C732.429 226.523 732.557 202.848 732.557 179.19V116.678C732.557 116.678 735.267 122.386 736.032 124.187C753.952 166.164 770.963 208.556 788.308 250.804C790.062 255.061 792.087 257.436 797.316 257.038C805.048 257.229 812.095 257.165 820.002 256.958C823.255 256.878 824.865 256.065 826.124 252.94C833.904 233.65 842.434 214.662 849.895 195.228C864.498 157.141 864.897 159.022 883.279 115.69C883.087 116.136 883.263 116.646 883.247 117.125Z" fill="#1754AC"/>
<path d="M238.289 188.229C252.797 223.526 263.399 248.971 264.275 251.075C264.578 251.792 265.551 254.056 267.576 255.364C269.122 256.368 270.924 256.703 270.924 256.703C271.545 256.814 272.04 256.83 272.215 256.846C279.804 257.149 287.408 256.846 294.997 256.846C295.858 256.846 297.787 256.846 299.541 255.651C299.541 255.651 300.768 254.806 301.613 253.323C305.025 247.265 344.228 150.222 354.288 125.829C355.515 122.832 356.902 119.899 358.911 115.403C358.863 132.924 358.879 147.161 358.911 156.854C358.975 177.229 359.071 181.788 359.087 202.546C359.087 203.327 359.087 211.952 359.087 231.928V251.091C359.182 252.207 359.262 253.323 359.358 254.439C359.437 254.758 359.645 255.316 360.123 255.81C360.633 256.32 361.207 256.464 361.733 256.607C361.733 256.607 362.61 256.846 364.778 256.846C364.778 256.846 364.826 256.846 365.862 256.846H379.987C370.996 264.547 336.703 292.064 284.953 292.558C231.418 293.068 195.802 264.323 187.081 256.846H202.96C204.267 256.894 206.18 256.735 207.408 255.427C208.667 254.088 208.604 252.159 208.588 251.474C208.476 247.392 208.46 229.536 208.364 204.985C208.364 177.946 208.364 150.907 208.364 123.868V118.288C218.345 141.613 228.309 164.921 238.289 188.245V188.229Z" fill="#1754AC"/>
<path d="M927.714 228.867C927.699 173.785 927.683 118.703 927.667 63.621C935.813 75.9287 940.835 87.264 943.976 95.7933C952.569 119.197 953.239 138.711 953.318 145.439C953.462 158.799 951.708 169.608 950.321 176.304C945.586 198.974 936.068 216.655 927.73 228.867H927.714Z" fill="#1754AC"/>
<path d="M162.589 228.787C128.966 181.708 127.978 112.693 162.589 63.2703V228.787Z" fill="#1754AC"/>
</svg>
